<svg width="159" height="26" viewBox="0 0 159 26" fill="none" xmlns="http://www.w3.org/2000/svg">
<path d="M9.65573 25H4.53573L5.65573 17L5.22906 15.5067C4.4824 13.0533 3.71795 10.6178 2.93573 8.2C2.18906 5.78222 1.4424 3.31111 0.695729 0.786667H6.13573C6.42017 1.92444 6.68684 3.08 6.93573 4.25333C7.22017 5.42667 7.48684 6.54667 7.73573 7.61333C7.98462 8.64444 8.19795 9.58667 8.37573 10.44C8.55351 11.2933 8.71351 11.9689 8.85573 12.4667C8.85573 12.4667 9.19351 11.7911 9.86906 10.44C10.2957 9.58667 10.7757 8.64444 11.3091 7.61333C11.8424 6.54667 12.4113 5.42667 13.0157 4.25333L14.7224 0.786667H20.2157C18.758 3.31111 17.318 5.78222 15.8957 8.2C14.4735 10.6178 13.0513 13.0533 11.6291 15.5067L10.7757 17L9.65573 25ZM32.437 21.4267C33.8948 21.4267 35.0325 20.6978 35.8503 19.24C36.6681 17.7467 37.2548 15.6489 37.6103 12.9467C38.0014 10.2089 37.9836 8.11111 37.557 6.65333C37.1303 5.16 36.2059 4.41333 34.7836 4.41333C33.397 4.41333 32.2948 5.16 31.477 6.65333C30.6592 8.11111 30.0548 10.2089 29.6636 12.9467C29.2725 15.6489 29.2725 17.7467 29.6636 19.24C30.0548 20.6978 30.9792 21.4267 32.437 21.4267ZM35.3703 0.36C38.357 0.36 40.5081 1.37333 41.8236 3.4C43.1392 5.42667 43.4948 8.60889 42.8903 12.9467C42.2859 17.2489 41.0414 20.4133 39.157 22.44C37.2725 24.4667 34.837 25.48 31.8503 25.48C25.6992 25.48 23.2103 21.3022 24.3836 12.9467C24.9881 8.60889 26.2325 5.42667 28.117 3.4C30.0014 1.37333 32.4192 0.36 35.3703 0.36ZM119.783 0.786667L111.357 25H106.503L105.33 9.58667L99.7832 25H95.0366L93.3832 0.786667H98.5032L99.1966 17.16L104.423 2.76H108.37L109.49 17.16L114.77 0.786667H119.783ZM138.119 4.94667H133.212L130.385 25H125.265L128.039 4.94667H123.079L123.612 0.786667H138.759L138.119 4.94667ZM155.169 15.5067H148.929L147.596 25H142.422L145.836 0.786667H158.476L157.889 4.94667H150.422L149.462 11.56H155.702L155.169 15.5067Z" fill="black"/>
<path d="M54.5309 21.2133C56.2376 21.2133 57.5532 20.5378 58.4776 19.1867C59.4376 17.8 60.1309 15.72 60.5576 12.9467C60.9487 10.0311 60.842 7.91556 60.2376 6.6C59.6687 5.28444 58.5487 4.62667 56.8776 4.62667C56.8776 4.62667 56.5754 4.62667 55.9709 4.62667C55.6865 4.62667 55.402 4.64444 55.1176 4.68L52.7709 21.2133C53.3754 21.2133 53.962 21.2133 54.5309 21.2133ZM50.5309 0.786667C50.5309 0.786667 52.6643 0.733333 56.9309 0.626667C58.6376 0.626667 60.1132 0.804444 61.3576 1.16C62.6376 1.48 63.6687 2.10222 64.4509 3.02667C65.9443 4.87556 66.3887 8.18222 65.7843 12.9467C64.8954 19.6667 62.3176 23.5778 58.0509 24.68C56.6998 25.0356 55.242 25.2133 53.6776 25.2133C52.1132 25.2133 50.7798 25.1778 49.6776 25.1067C48.5754 25.0356 47.722 25 47.1176 25L50.5309 0.786667ZM73.5856 0.786667H78.7056L77.2123 11.4L84.5723 0.786667H90.279L81.9056 11.7733C82.8301 14.0133 83.7723 16.2178 84.7323 18.3867C85.7278 20.5556 86.7056 22.76 87.6656 25H81.5323L76.9456 13.2133L75.2923 25H70.1723L73.5856 0.786667Z" fill="#29648A"/>
</svg>
